<svg width="1440" height="431" viewBox="0 0 1440 431" fill="none" xmlns="http://www.w3.org/2000/svg">
<path fill-rule="evenodd" clip-rule="evenodd" d="M0 65.5664L60 52.0944C120 38.6224 240 12.2908 360 3.71769C480 -5.46775 600 3.71769 720 16.5773C840 30.0493 960 47.8078 1080 52.0944C1200 56.3809 1320 47.8078 1380 43.5213L1440 38.6224V250.5H1380C1320 250.5 1200 250.5 1080 250.5C960 250.5 840 250.5 720 250.5C600 250.5 480 250.5 360 250.5C240 250.5 120 250.5 60 250.5H0V65.5664Z" fill="#4F47C8"/>
<path fill-rule="evenodd" clip-rule="evenodd" d="M1440 430.434L1380 443.906C1320 457.378 1200 483.709 1080 492.282C960 501.468 840 492.282 720 479.423C600 465.951 480 448.192 360 443.906C240 439.619 120 448.192 60 452.479L0 457.378V245.5H60C120 245.5 240 245.5 360 245.5C480 245.5 600 245.5 720 245.5C840 245.5 960 245.5 1080 245.5C1200 245.5 1320 245.5 1380 245.5H1440V430.434Z" fill="#4F47C8"/>
</svg>
